<svg xmlns="http://www.w3.org/2000/svg" xmlns:xlink="http://www.w3.org/1999/xlink" width="717.49" height="219.26" viewBox="0 0 717.49 219.26"><defs><style>.bdeba144-1dd7-43f9-bec8-cc969d9d0332{fill:none;}.f9118fc0-59f7-4df3-8964-8730b4d8b3b5{clip-path:url(#a9425aba-2592-4336-a862-625e7b13e634);}.ee702079-6c3f-4f05-9c83-1b329e99ac40{fill:#655b8c;}.b10c70b6-86ca-4eab-8adb-6ddb03718141{fill:#e2174e;}.a3f111b5-0d32-4f70-b8c8-7371d029a3bc{fill:#06a0b7;}.ab2f96f4-40ca-4306-8b31-86571931fd56{fill:#ffd239;}.b6e0ea3c-00fa-4d7e-9f5f-f3999a64c3e1{fill:#322f42;}</style><clipPath id="a9425aba-2592-4336-a862-625e7b13e634" transform="translate(0 0)"><rect class="bdeba144-1dd7-43f9-bec8-cc969d9d0332" width="717.49" height="219.26"/></clipPath></defs><title>SUL_logo_values_color</title><g id="a4c2be02-327e-4e2c-a5fd-7014de046bc1" data-name="Livello 2"><g id="e4662db6-d25a-40bd-a22c-686d1f1733fe" data-name="Text"><g id="a01c355b-f2a0-45e4-b842-2dfbfa45fb62" data-name="Main graphics"><g id="ab534fc2-f5a6-464c-acd1-e7f79a32352b" data-name="Main logo"><g class="f9118fc0-59f7-4df3-8964-8730b4d8b3b5"><path class="ee702079-6c3f-4f05-9c83-1b329e99ac40" d="M93.69,193.61A93.69,93.69,0,1,0,0,99.93a93.68,93.68,0,0,0,93.69,93.68" transform="translate(0 0)"/><path class="b10c70b6-86ca-4eab-8adb-6ddb03718141" d="M93.69,210.9A93.69,93.69,0,1,0,0,117.21,93.69,93.69,0,0,0,93.69,210.9" transform="translate(0 0)"/><path class="a3f111b5-0d32-4f70-b8c8-7371d029a3bc" d="M119,219.26a93.69,93.69,0,1,0-93.68-93.68A93.69,93.69,0,0,0,119,219.26" transform="translate(0 0)"/><path class="ab2f96f4-40ca-4306-8b31-86571931fd56" d="M119,201.26A100.63,100.63,0,1,0,18.38,100.63,100.63,100.63,0,0,0,119,201.26" transform="translate(0 0)"/><path class="b6e0ea3c-00fa-4d7e-9f5f-f3999a64c3e1" d="M647,132c-1.52,3.86-3.49,6.59-5,7.5-1.22.68-2.81,1-9.25,1-6,0-7.43-.91-8.26-1.74-1.36-1.44-1.59-3.41-1.59-8.18V104.13c0-7.95.15-9.17,4.62-9.54l1.82-.16c.45-.3.3-1.66-.15-1.89-3.79.15-6.37.23-9.32.23s-5.61-.08-9.85-.23c-.46.23-.61,1.59-.16,1.89l1.9.16c4.77.37,4.92,1.59,4.92,9.54v27.29c0,8-.15,9-4.54,9.47l-2.28.23A1.47,1.47,0,0,0,610,143c4.24-.15,6.66-.23,9.85-.23h7c7.81,0,15,.08,18.87.23a61,61,0,0,0,3.18-10.61c0-.53-1.44-.83-1.89-.45" transform="translate(0 0)"/><path class="b6e0ea3c-00fa-4d7e-9f5f-f3999a64c3e1" d="M669.15,135c-.08,1.59-.08,2.65-1,3.56a8.57,8.57,0,0,1-4.62,1.89,4.57,4.57,0,0,1-4.78-4.54c0-3,2.2-4.1,6.67-5.61a14,14,0,0,1,3.11-.76c.45,0,.76.15.76,1ZM681,139.52c-.23,0-.61.31-1,.53a4.27,4.27,0,0,1-1.89.46c-3,0-3.64-3.11-3.49-6.59l.46-13.19c.22-5.68-2.43-8.87-7.88-8.87s-14.1,5.38-14.1,9.32a1,1,0,0,0,1.06,1.07,8.15,8.15,0,0,0,4.32-1.44c.61-.46.68-1.37.76-2.58.15-2.35,2.73-3.41,4.85-3.41,4.7,0,5.61,3.79,5.53,6.59l-.08,3.49c0,1.13-.15,1.82-1.28,2.2l-9,3.25c-4.85,1.75-6.29,3.49-6.29,6.45a7.09,7.09,0,0,0,2.35,5.3,7.81,7.81,0,0,0,5.3,1.74c2.12,0,3.79-1,5.46-1.89,1.51-.83,2.42-1.52,3-1.52s.91.61,1.22,1.06a6,6,0,0,0,4.92,2.35c3.72,0,6.37-3,6.37-3.33,0-.53-.23-1-.53-1" transform="translate(0 0)"/><path class="b6e0ea3c-00fa-4d7e-9f5f-f3999a64c3e1" d="M701.2,141.57a7.23,7.23,0,0,1-5.76-2.5,10.46,10.46,0,0,1-1.89-6.59V120.65c0-3,.15-3.78.91-4.32a9.91,9.91,0,0,1,5.15-1.21c7.5,0,11.52,6.06,11.52,13.87,0,6.52-2.81,12.58-9.93,12.58M703,111.86a17.6,17.6,0,0,0-8.72,2.5c-.45,0-.75-.3-.75-1.59V98.45c0-3.33.15-6.74.3-9.4a.84.84,0,0,0-.76-.45,70.66,70.66,0,0,1-8.26,3.18,1.16,1.16,0,0,0,0,1.52l.76.45c2.27,1.37,2.35,1.82,2.35,6.29v36.15c0,3.94-.08,5.38-.15,6.44a.83.83,0,0,0,.75.46c.16,0,.23,0,.31-.08.38-.53,1-1.14,1.59-1.14a16.22,16.22,0,0,1,3.18,1,21.89,21.89,0,0,0,6.44,1c10.16,0,17.43-7,17.43-17.12,0-8.34-5.83-14.86-14.47-14.86" transform="translate(0 0)"/><path class="b6e0ea3c-00fa-4d7e-9f5f-f3999a64c3e1" d="M253,138.93c-2.16,1.49-3.78,2.43-6.48,2.43-8.63,0-9.84-7.55-9.84-16.05V104.54c0-4.32.13-4.59,2.56-4.59h12.81a4.27,4.27,0,0,0,1.76-3.5c0-1.35-.27-2.43-1.08-2.84H239.39c-2.56,0-2.56-.4-2.56-2.56V83a2.86,2.86,0,0,0-3.77-.67,25.28,25.28,0,0,1-7.42,8.36A43.58,43.58,0,0,1,215,96.31a2.23,2.23,0,0,0,.41,3.64h4.72c2.15,0,2.42.14,2.42,4.86v27.38c0,9.44,2.3,16.86,15.11,16.86,8.23,0,14.43-3.64,17.13-7.42a2.11,2.11,0,0,0-1.75-2.7" transform="translate(0 0)"/><path class="b6e0ea3c-00fa-4d7e-9f5f-f3999a64c3e1" d="M287.63,135.16c-.13,3.24-1.62,6.47-6.47,6.47-5.13,0-7.56-4.31-7.56-7.82,0-5.8,3.51-7.69,7.29-9a22,22,0,0,1,5.93-1.61c.68,0,1.08.8,1.08,2.29Zm24.55,5.26c-.4,0-2.29,1.48-4.59,1.48-4.85,0-6.87-4-6.47-11.87l.94-21c.54-11.87-6.07-16.86-16.72-16.86-6.88,0-16.59,4.59-20.77,8.5-4.45,4.18-5.26,7-5.26,8.63,0,1.21.81,2.16,2.56,2.16A18.48,18.48,0,0,0,270.5,109c1.49-.94,2.3-2.29,2.57-4.86.53-3.91,3.37-5.93,7.14-5.93,6.61,0,8.5,5.93,8.23,12.81l-.13,3.51c0,1.35-.41,2.56-3.11,3.51-5,1.89-10.11,3.78-14.83,5.4-9.31,3.23-11.2,7.68-11.2,12.54,0,6.74,4.59,13.08,13.76,13.08a21.75,21.75,0,0,0,11.46-3.51c2-1.21,3-1.88,3.65-1.88s1.21.67,2.15,1.61c2.57,2.84,6.34,3.78,9.72,3.78,4.18,0,10.79-2.16,13.48-5.93.41-1.22-.54-2.7-1.21-2.7" transform="translate(0 0)"/><path class="b6e0ea3c-00fa-4d7e-9f5f-f3999a64c3e1" d="M353.4,92.13c-4.58,0-9,4.05-13.22,7a1.43,1.43,0,0,1-1.34-1.61c0-1.22.13-3.51.27-6.08a1.92,1.92,0,0,0-1.89-1.21,96.08,96.08,0,0,1-17,7.29,3.57,3.57,0,0,0-.13,3.1l1.62.94c3.37,2,3.37,3.64,3.37,9.71v19.83c0,10-.54,11.33-5.13,12.14l-2.43.41c-.94.94-.81,3.37.27,3.91,5.13-.27,9.58-.41,14-.41,5,0,9.58.14,17.67.41,1.08-.54,1.22-3,.27-3.91l-5.26-.54c-4.72-.54-5.26-2-5.26-12V112.63c0-6.61.81-9.71,3.91-9.71.81,0,3.1.27,6.48,2.56a6.73,6.73,0,0,0,3.64,1.08,7.42,7.42,0,0,0,7.55-7.82c0-3.51-2.7-6.61-7.42-6.61" transform="translate(0 0)"/><path class="b6e0ea3c-00fa-4d7e-9f5f-f3999a64c3e1" d="M403.31,138.93c-2.16,1.49-3.78,2.43-6.47,2.43-8.63,0-9.85-7.55-9.85-16.05V104.54c0-4.32.14-4.59,2.56-4.59h12.82a4.23,4.23,0,0,0,1.75-3.5c0-1.35-.27-2.43-1.08-2.84H389.69c-2.56,0-2.56-.4-2.56-2.56V83a2.88,2.88,0,0,0-3.78-.67,25.28,25.28,0,0,1-7.42,8.36,43.58,43.58,0,0,1-10.66,5.66,2.23,2.23,0,0,0,.41,3.64h4.72c2.16,0,2.43.14,2.43,4.86v27.38c0,9.44,2.29,16.86,15.11,16.86,8.22,0,14.43-3.64,17.13-7.42a2.11,2.11,0,0,0-1.76-2.7" transform="translate(0 0)"/><path class="b6e0ea3c-00fa-4d7e-9f5f-f3999a64c3e1" d="M407.34,116.41a11.59,11.59,0,0,0-.8,4.45,10,10,0,0,0,.8,4.32l21.19-3a10.45,10.45,0,0,0,.8-4.32,9.85,9.85,0,0,0-.8-4.45Z" transform="translate(0 0)"/><path class="b6e0ea3c-00fa-4d7e-9f5f-f3999a64c3e1" d="M523.8,57.74c-5,.27-8.63.4-14.3.4-5.26,0-10.38-.13-15-.4-1.35.4-1.48,2.83-.27,3.77l2.7.41c3.37.54,5.53,1.48,6.74,3.5,2.43,3.92,2.57,16.46,2.57,26.58v16.86c0,20.5-7.29,33.85-25,33.85-18.75,0-24.41-15.65-24.41-34.26V77.56c0-14.3,1.21-14.83,7.55-15.64l3-.41c.94-.94.81-3.23-.27-3.77-5.93.27-12,.4-18.08.4s-12-.13-17.4-.4c-1.07.54-1.21,2.83-.26,3.77l2.29.41c6.34,1.08,7.55,1.34,7.55,15.64v34.26c0,13.63,2.84,23.07,8.9,28.87,6.21,5.93,15.11,8.63,27.79,8.63,9.31,0,19.42-2.56,26.44-10.12s8.9-18.88,8.9-31.15V92c0-10.66,0-22.53,1.89-26.58.94-2.16,3.37-2.69,5.93-3.23l3-.68a2.6,2.6,0,0,0-.27-3.77" transform="translate(0 0)"/><path class="b6e0ea3c-00fa-4d7e-9f5f-f3999a64c3e1" d="M545,111.82c0-5.66.4-7.95,1.48-9.17a10.21,10.21,0,0,1,7.28-2.7c10.52,0,17.13,8.77,17.13,21.59,0,12.4-5.12,22.12-14.43,22.12a13.43,13.43,0,0,1-7.15-2.7c-2.83-2.43-4.31-4.45-4.31-8.64Zm2,36.69a38.58,38.58,0,0,0,5.93.54c19.83,0,33-13.22,33-32,0-13.89-8.5-25-23.2-25-7,0-15,5-16.73,5.8A1.69,1.69,0,0,1,545,96.18a37.1,37.1,0,0,1,.67-5.26,2.14,2.14,0,0,0-2.16-1.35,75.28,75.28,0,0,1-17.53,8,2.85,2.85,0,0,0-.14,3.1l1.62,1.08c3.51,2.29,3.37,3.5,3.37,9.57v54.23c0,10-.54,11.6-5.12,12.14l-3.51.4c-.94.95-.81,3.37.27,3.91,5.4-.27,10.65-.4,15.11-.4,5,0,10.25.13,17.26.4,1.08-.54,1.22-3,.27-3.91l-4.86-.54c-4.72-.54-5.25-2-5.25-12V152.29c0-2.7.8-3.51,2-3.78" transform="translate(0 0)"/><path class="b6e0ea3c-00fa-4d7e-9f5f-f3999a64c3e1" d="M64.78,155.78c1.72-2.45,6.6-2.7,8.9-1,5.16,12.53,20.66,38.81,48.77,38.81,21.81,0,34.15-11.3,34.15-26.28,0-14-7.75-25.31-29.27-35.62L115,125.81C93.47,115.49,74.54,100.5,74.54,78.4c0-24.33,21.23-45,63.12-45,13.14,0,23.16,2.28,34.57,4.33A92.47,92.47,0,1,0,71.5,190.62c-4.15-6.93-7-21.54-6.72-34.84" transform="translate(0 0)"/><path class="b6e0ea3c-00fa-4d7e-9f5f-f3999a64c3e1" d="M203.34,106.92a92.18,92.18,0,0,0-24-62.15,111.53,111.53,0,0,1,3.66,27c-1.44,2.21-6.6,2.46-9.19.74-4.3-12.78-14.34-29.24-38.73-29.24-23,0-32.42,12.78-32.42,25.79,0,10.33,8.32,21.38,27.26,30l17.78,8.1c18.66,8.36,39.31,23.59,39.31,48.4,0,1.42-.11,2.8-.23,4.17a92,92,0,0,0,16.56-52.78" transform="translate(0 0)"/></g></g></g></g></g></svg>