<svg id="Scaled" xmlns="http://www.w3.org/2000/svg" viewBox="0 0 566.93 566.93"><defs><style>.cls-1{fill:#e13c31;}</style></defs><title>Logo-Engel_red</title><path class="cls-1" d="M262.54,507l.69,0a14.1,14.1,0,0,0,.26-1.9q0-12.41,0-24.83,0-138.75.07-277.5c0-3.55-.83-5.69-3.81-7.67-23-15.26-28.84-49.13-12.68-72.43,11.68-16.84,31.24-24.52,50.64-19,19.59,5.56,31.26,19.72,35.17,40.78,3.61,19.45-5.39,40.06-21.86,51.09-2.63,1.76-3.13,3.72-3.13,6.69q.09,150.73.05,301.45,0,2.14,0,4.28c3.47-35.41,6.21-70.83,8.88-106.26q6.37-84.42,12.6-168.84a12.34,12.34,0,0,0-1.2-6.47c-4.68-8.48-4.11-17.87,1.86-25a19.13,19.13,0,0,1,23.57-4.33c1.4.77,2.76,1.64,5,3l10.25-26.63c-10.92-2.89-17.57-9.23-17.58-20.69s6.45-17.95,17.63-20.76l-10.31-26.47c-13.06,6.61-21.59,6.38-27.81-1.08a28,28,0,0,1-5.36-11c-1.48-6,.59-11.67,4.86-17.57L305.11,65c-3.64,10.26-9.68,15.88-18.95,16.08-9.8.22-16.18-5.54-20-16.18l-25.78,11.5c6.26,10.15,6.68,19.46-.48,27.41-7.8,8.67-17.23,8.63-26.87,2.57-4.58,8.19-8.05,16.51-9.69,25.82,9.92,2.66,16.23,8.61,16.61,19.58.42,12.06-6.31,18.44-17.46,21.74l10,25.78c1.66-.87,2.28-1.16,2.86-1.5,8-4.64,18-3.53,23.8,2.65,6.67,7.1,7.66,15.82,3.18,25.21a15.22,15.22,0,0,0-1.21,6.49q4.85,64,9.89,128,4.45,57.06,8.93,114.12Q261.25,490.64,262.54,507ZM339,433.5c8.27,2.05,19.54-4.31,22.36-12.4a8.48,8.48,0,0,0,.36-2.11q2.84-36.19,5.67-72.38,3.16-39.68,6.45-79.36c.82-9.81,7.38-17.52,16.5-19.41,4.12-.86,8.32-1.27,12.49-1.8q47.3-6,94.59-11.88c15-1.88,29.87-4.51,44.87-5.37,8.88-.51,19.14-14.1,16.95-24-6.76.77-13.6,1.49-20.42,2.34q-43.45,5.45-86.9,11c-30.85,3.88-61.7,7.86-92.57,11.51-4.36.52-5.47,2.4-5.72,6.67-1,16.65-2.23,33.29-3.5,49.93q-4.74,62.48-9.58,125C340,418.6,339.53,426.08,339,433.5ZM8.9,204.67c-.65,11.87,7.29,22.86,16.25,23.88,17.94,2.06,35.85,4.36,53.77,6.58q25.87,3.21,51.73,6.48c15.36,2,30.73,3.76,46,6.07a20.77,20.77,0,0,1,17.86,18.53q6,74.8,11.91,149.61c.89,11.28,11.91,20.05,22.78,17.76,0-1.2.08-2.47,0-3.73q-1.79-24.08-3.63-48.15Q220,307.94,214.42,234.17c-.21-2.83-.85-3.93-3.67-4.27-21.83-2.66-43.63-5.57-65.45-8.33Q91.14,214.73,37,208C27.69,206.85,18.41,205.8,8.9,204.67Zm43.77,56a43.73,43.73,0,0,0,.63,5.12,24.91,24.91,0,0,0,20.94,18.56q44.23,5.45,88.45,11.05c5.43.68,10.86,1.3,16.53,2-.5-6.2-1.11-11.67-1.31-17.16-.11-3.11-1.22-4.21-4.06-4.56q-52.52-6.44-105-13.07C63.64,261.9,58.43,261.31,52.67,260.63Zm462.82.26a23.92,23.92,0,0,0-2.66,0q-41.6,5.16-83.2,10.35c-11.71,1.46-23.43,2.93-35.12,4.56-1.32.19-3.48,1.34-3.61,2.28-.8,6.25-1.16,12.57-1.67,19.08a25.64,25.64,0,0,0,2.57,0c27.73-3.47,55.47-6.88,83.19-10.48,8.45-1.1,17-2.12,25.21-4.28C509.21,280,515.85,270.06,515.49,260.89ZM387.92,350.71c2.95-.4,5.22-.66,7.49-1,21.57-3.41,43.18-6.64,64.71-10.37,9.39-1.63,16-12.18,15-22.7a17.87,17.87,0,0,0-2.71,0q-19.5,3-39,6.05c-12.87,2-25.74,4-38.59,6.17-1.58.26-4.2,1.07-4.38,2C389.35,337.2,388.77,343.61,387.92,350.71ZM93.28,316.34c-.54,12.26,6.82,22.29,17.41,23.74,18,2.46,36,5.54,54,8.34,4.88.76,9.78,1.44,15.13,2.22-.44-5.5-1.29-10.26-1.07-15,.24-5.18-2-6.46-6.22-7.09-19.74-2.93-39.44-6.19-59.16-9.29C106.66,318.24,100,317.32,93.28,316.34Zm289,83.71a11.67,11.67,0,0,0,2.3.12c13.5-2.36,27-4.55,40.48-7.21,7.89-1.56,15-15,12.73-23.32-1.44.27-2.89.55-4.35.82-15.49,2.78-31,5.51-46.46,8.44-1.36.26-3.46,1.75-3.58,2.87C382.75,387.75,382.62,393.81,382.29,400Zm-196.21.57c-.35-6.27-.85-11.87-.91-17.46,0-3-1-3.88-3.68-4.34-13.92-2.37-27.81-5-41.71-7.49-3.52-.63-7.06-1.17-11.14-1.84,1.28,4.46,2,8.14,3.38,11.55,2.71,6.93,6.87,11.91,14.63,12.55,5.24.43,10.4,1.94,15.6,2.87C170,397.86,177.7,399.17,186.08,400.62Z"/><path class="cls-1" d="M262.54,507q-1.29-16.36-2.57-32.73Q255.5,417.22,251,360.16q-5-64-9.89-128a15.22,15.22,0,0,1,1.21-6.49c4.48-9.39,3.49-18.1-3.18-25.21-5.8-6.18-15.85-7.29-23.8-2.65-.59.34-1.2.63-2.86,1.5l-10-25.78c11.15-3.3,17.89-9.68,17.46-21.74-.38-11-6.69-16.92-16.61-19.58,1.64-9.31,5.11-17.63,9.69-25.82,9.64,6.06,19.06,6.1,26.87-2.57,7.16-8,6.74-17.26.48-27.41l25.78-11.5c3.77,10.63,10.15,16.39,20,16.18,9.26-.2,15.3-5.83,18.95-16.08l25.2,10.92C326,81.8,324,87.45,325.45,93.48a28,28,0,0,0,5.36,11c6.22,7.46,14.75,7.69,27.81,1.08L368.92,132c-11.18,2.82-17.64,9.32-17.63,20.76s6.66,17.8,17.58,20.69l-10.25,26.63c-2.22-1.32-3.58-2.19-5-3a19.13,19.13,0,0,0-23.57,4.33c-6,7.12-6.54,16.51-1.86,25a12.34,12.34,0,0,1,1.2,6.47q-6.2,84.43-12.6,168.84c-2.67,35.43-5.41,70.85-8.88,106.26q0-2.14,0-4.28,0-150.73-.05-301.45c0-3,.5-4.93,3.13-6.69,16.47-11,25.47-31.63,21.86-51.09-3.91-21.06-15.58-35.22-35.17-40.78-19.4-5.51-39,2.17-50.64,19-16.16,23.3-10.32,57.17,12.68,72.43,3,2,3.81,4.11,3.81,7.67q-.13,138.75-.07,277.5,0,12.41,0,24.83a14.1,14.1,0,0,1-.26,1.9Z"/><path class="cls-1" d="M339,433.5c.52-7.42,1-14.9,1.56-22.38q4.78-62.48,9.58-125c1.26-16.63,2.5-33.27,3.5-49.93.26-4.27,1.37-6.16,5.72-6.67,30.88-3.65,61.72-7.62,92.57-11.51q43.45-5.47,86.9-11c6.82-.85,13.66-1.57,20.42-2.34,2.19,9.94-8.07,23.54-16.95,24-15,.86-29.92,3.49-44.87,5.37q-47.3,5.94-94.59,11.88c-4.17.53-8.38.94-12.49,1.8-9.12,1.9-15.68,9.6-16.5,19.41q-3.31,39.67-6.45,79.36-2.88,36.19-5.67,72.38a8.48,8.48,0,0,1-.36,2.11C358.55,429.19,347.29,435.55,339,433.5Z"/><path class="cls-1" d="M8.9,204.67C18.41,205.8,27.69,206.85,37,208q54.17,6.75,108.34,13.57c21.82,2.75,43.62,5.67,65.45,8.33,2.83.34,3.46,1.44,3.67,4.27q5.49,73.77,11.18,147.53,1.83,24.08,3.63,48.15c.09,1.26,0,2.53,0,3.73-10.86,2.29-21.88-6.48-22.78-17.76Q200.54,341,194.56,266.21a20.77,20.77,0,0,0-17.86-18.53c-15.31-2.3-30.69-4.11-46-6.07q-25.86-3.29-51.73-6.48c-17.92-2.22-35.83-4.52-53.77-6.58C16.19,227.53,8.24,216.54,8.9,204.67Z"/><path class="cls-1" d="M52.67,260.63c5.77.68,11,1.27,16.17,1.91q52.5,6.55,105,13.07c2.84.35,4,1.44,4.06,4.56.19,5.49.81,11,1.31,17.16-5.67-.68-11.1-1.3-16.53-2q-44.23-5.52-88.45-11.05a24.91,24.91,0,0,1-20.94-18.56A43.73,43.73,0,0,1,52.67,260.63Z"/><path class="cls-1" d="M515.49,260.89c.36,9.17-6.28,19.15-15.29,21.52-8.24,2.16-16.76,3.18-25.21,4.28-27.72,3.6-55.46,7-83.19,10.48a25.64,25.64,0,0,1-2.57,0c.52-6.51.87-12.83,1.67-19.08.12-.95,2.28-2.1,3.61-2.28,11.69-1.64,23.41-3.1,35.12-4.56q41.59-5.2,83.2-10.35A23.92,23.92,0,0,1,515.49,260.89Z"/><path class="cls-1" d="M387.92,350.71c.84-7.1,1.42-13.51,2.54-19.82.17-1,2.8-1.77,4.38-2,12.85-2.14,25.72-4.15,38.59-6.17s26-4.06,39-6.05a17.87,17.87,0,0,1,2.71,0c1,10.52-5.63,21.08-15,22.7-21.53,3.73-43.13,7-64.71,10.37C393.15,350.05,390.87,350.31,387.92,350.71Z"/><path class="cls-1" d="M93.28,316.34c6.7,1,13.38,1.9,20,2.95,19.72,3.1,39.42,6.36,59.16,9.29,4.26.63,6.46,1.9,6.22,7.09-.22,4.71.63,9.47,1.07,15-5.35-.78-10.24-1.46-15.13-2.22-18-2.8-35.93-5.88-54-8.34C100.1,338.63,92.74,328.6,93.28,316.34Z"/><path class="cls-1" d="M382.29,400c.32-6.24.46-12.3,1.11-18.29.12-1.12,2.22-2.61,3.58-2.87,15.47-2.93,31-5.65,46.46-8.44,1.46-.26,2.91-.55,4.35-.82,2.31,8.28-4.84,21.76-12.73,23.32-13.45,2.66-27,4.85-40.48,7.21A11.67,11.67,0,0,1,382.29,400Z"/><path class="cls-1" d="M186.08,400.62c-8.38-1.46-16.11-2.77-23.83-4.15-5.21-.94-10.36-2.44-15.6-2.87C138.89,393,134.73,388,132,381c-1.33-3.42-2.1-7.09-3.38-11.55,4.08.67,7.62,1.21,11.14,1.84,13.9,2.5,27.79,5.12,41.71,7.49,2.66.45,3.65,1.38,3.68,4.34C185.23,388.76,185.73,394.35,186.08,400.62Z"/></svg>